<svg xmlns="http://www.w3.org/2000/svg" width="29.431" height="26.531" viewBox="0 0 29.431 26.531">
  <g id="Group_132" data-name="Group 132" transform="translate(-305 -706.53)">
    <g id="Group_38" data-name="Group 38" transform="translate(240.826 774.173)">
      <path id="Path_89" data-name="Path 89" d="M72.5-49.945l6.074,4.837,6.075-4.539,2.148,2.122-7.149,5.976a1.228,1.228,0,0,1-1.871,0L70.7-47.376Z" fill="#364148"/>
    </g>
    <path id="Path_90" data-name="Path 90" d="M93.605-59.275a9.516,9.516,0,0,0-1.322-4.614,8.681,8.681,0,0,0-2.388-2.547A8.114,8.114,0,0,0,84.142-67.5a12.407,12.407,0,0,0-4.159,1.471l2.086,2.575s6.442-3.436,8.1,2.639c0,0,.921,4.171-1.288,7.117l-1.165-1.288-.8,5.337,5.337-.3-1.35-1.36S93.586-53.268,93.605-59.275Z" transform="translate(240.826 774.173)" fill="#364148"/>
    <path id="Path_91" data-name="Path 91" d="M74.639-67.424h0c-.127-.024-.254-.045-.377-.067a10.677,10.677,0,0,0-4.2.125,8.429,8.429,0,0,0-4.912,3.927,8.678,8.678,0,0,0-.97,4.041c-.111,5.556,2.681,8.4,2.681,8.4l2.516-2.393c-3.8-5.582-.92-9.2-.92-9.2,2.148-2.821,6.5-1.656,6.5-1.656l1.192.676,1.079-2.946A6.785,6.785,0,0,0,74.639-67.424Z" transform="translate(240.826 774.173)" fill="#364148"/>
  </g>
</svg>
