<svg xmlns="http://www.w3.org/2000/svg" width="33.112" height="32.056" viewBox="0 0 33.112 32.056">
  <g id="_001-house-black-silhouette-without-door" data-name="001-house-black-silhouette-without-door" transform="translate(0 -4.89)">
    <path id="Path_92" data-name="Path 92" d="M32.7,20.531a1.579,1.579,0,0,0-.129-2.259L17.769,5.323a1.845,1.845,0,0,0-2.406.028L.515,18.962a1.57,1.57,0,0,0-.071,2.256l.372.388a1.623,1.623,0,0,0,2.228.171l1.11-.994V35.331a1.615,1.615,0,0,0,1.615,1.615h5.788a1.615,1.615,0,0,0,1.615-1.615V25.153h7.383V35.331a1.526,1.526,0,0,0,1.517,1.615h6.134a1.615,1.615,0,0,0,1.615-1.615V20.987l.685.6c.377.332,1.17.066,1.77-.6Z" transform="translate(0)" fill="#364148"/>
  </g>
</svg>
