<svg xmlns="http://www.w3.org/2000/svg" width="30" height="29.941" viewBox="0 0 30 29.941">
  <path id="Path_93" data-name="Path 93" d="M29.407,28.267a10.276,10.276,0,0,1-3.826-4.124,13.78,13.78,0,0,0,4.414-10.019c0-7.738-6.76-14.093-15-14.093S0,6.386,0,14.125,6.76,28.217,15,28.217a18.4,18.4,0,0,0,3.932-.447,19.23,19.23,0,0,0,9.644,2.2c.655-.008,1.13.11,1.375-.565A.89.89,0,0,0,29.407,28.267ZM16.755,21.2a1.758,1.758,0,0,1-3.515,0V14.125a1.758,1.758,0,0,1,3.515,0ZM15,9.681a1.754,1.754,0,1,1,1.758-1.754A1.756,1.756,0,0,1,15,9.681Z" transform="translate(0 -0.032)" fill="#364148"/>
</svg>
