<svg xmlns="http://www.w3.org/2000/svg" width="30.801" height="21.179" viewBox="0 0 30.801 21.179">
  <g id="_003-list-text" data-name="003-list-text" transform="translate(-0.001 -80)">
    <g id="Group_44" data-name="Group 44" transform="translate(5.785 80)">
      <g id="Group_43" data-name="Group 43">
        <path id="Path_94" data-name="Path 94" d="M117.348,80H98.1a1.924,1.924,0,0,0,0,3.849h19.244a1.924,1.924,0,0,0,0-3.849Z" transform="translate(-96.18 -80)" fill="#72d446"/>
      </g>
    </g>
    <g id="Group_46" data-name="Group 46" transform="translate(0.001 80.008)">
      <g id="Group_45" data-name="Group 45" transform="translate(0 0)">
        <path id="Path_95" data-name="Path 95" d="M3.86,82.051a1.924,1.924,0,0,0-3.849,0,1.638,1.638,0,0,0,0,.375,1.735,1.735,0,0,0,.106.366,2.233,2.233,0,0,0,.183.327,1.761,1.761,0,0,0,.241.3,1.7,1.7,0,0,0,.289.231,1.568,1.568,0,0,0,.327.183,1.588,1.588,0,0,0,.4.144,1.687,1.687,0,0,0,.375,0,1.924,1.924,0,0,0,1.357-.558,1.761,1.761,0,0,0,.241-.3,2.233,2.233,0,0,0,.183-.327,1.787,1.787,0,0,0,.144-.366A1.638,1.638,0,0,0,3.86,82.051Z" transform="translate(-0.001 -80.135)" fill="#72d446"/>
      </g>
    </g>
    <g id="Group_48" data-name="Group 48" transform="translate(0.012 88.668)">
      <g id="Group_47" data-name="Group 47" transform="translate(0 0)">
        <path id="Path_96" data-name="Path 96" d="M4.029,226.051a1.645,1.645,0,0,0,0-.375,1.559,1.559,0,0,0-.144-.356,1.924,1.924,0,0,0-.183-.337,1.386,1.386,0,0,0-.241-.289A1.924,1.924,0,0,0,.18,226.051,1.919,1.919,0,0,0,.5,227.119a1.848,1.848,0,0,0,.25.289,1.4,1.4,0,0,0,.289.241,1.561,1.561,0,0,0,.327.183,1.637,1.637,0,0,0,.366.106,1.6,1.6,0,0,0,.375.038,1.638,1.638,0,0,0,.375,0,1.562,1.562,0,0,0,.356-.106,1.607,1.607,0,0,0,.337-.183,1.405,1.405,0,0,0,.289-.241,1.405,1.405,0,0,0,.241-.289,1.548,1.548,0,0,0,.183-.327,1.628,1.628,0,0,0,.144-.4A1.592,1.592,0,0,0,4.029,226.051Z" transform="translate(-0.18 -224.135)" fill="#72d446"/>
      </g>
    </g>
    <g id="Group_50" data-name="Group 50" transform="translate(0.011 97.328)">
      <g id="Group_49" data-name="Group 49">
        <path id="Path_97" data-name="Path 97" d="M4.027,370.051a1.652,1.652,0,0,0,0-.375,1.638,1.638,0,0,0-.144-.366,2.232,2.232,0,0,0-.183-.327,1.4,1.4,0,0,0-.241-.289,1.924,1.924,0,0,0-2.713,0,1.4,1.4,0,0,0-.241.289,2.232,2.232,0,0,0-.183.327,1.576,1.576,0,0,0-.106.366,1.654,1.654,0,0,0-.038.375,1.925,1.925,0,0,0,.568,1.357,1.4,1.4,0,0,0,.289.241,1.561,1.561,0,0,0,.327.183,1.637,1.637,0,0,0,.366.106,1.6,1.6,0,0,0,.375.038,1.638,1.638,0,0,0,.375,0,1.56,1.56,0,0,0,.356-.106,1.608,1.608,0,0,0,.337-.183,1.405,1.405,0,0,0,.289-.241,1.4,1.4,0,0,0,.241-.289,1.54,1.54,0,0,0,.183-.327,1.633,1.633,0,0,0,.144-.4A1.592,1.592,0,0,0,4.027,370.051Z" transform="translate(-0.178 -368.135)" fill="#72d446"/>
      </g>
    </g>
    <g id="Group_52" data-name="Group 52" transform="translate(5.785 88.66)">
      <g id="Group_51" data-name="Group 51" transform="translate(0 0)">
        <path id="Path_98" data-name="Path 98" d="M119.273,224H98.1a1.924,1.924,0,1,0,0,3.849h21.169a1.924,1.924,0,1,0,0-3.849Z" transform="translate(-96.18 -224)" fill="#72d446"/>
      </g>
    </g>
    <g id="Group_54" data-name="Group 54" transform="translate(5.785 97.32)">
      <g id="Group_53" data-name="Group 53" transform="translate(0 0)">
        <path id="Path_99" data-name="Path 99" d="M110.613,368H98.1a1.924,1.924,0,0,0,0,3.849h12.509a1.924,1.924,0,1,0,0-3.849Z" transform="translate(-96.18 -368)" fill="#72d446"/>
      </g>
    </g>
  </g>
</svg>
